<svg xmlns="http://www.w3.org/2000/svg" viewBox="0 0 1372 238.12"><path d="M7.59,136.76v105c58.68,0,144-29.34,158.67-102.69H169V241.72h50.75c65.31,0,66.61-102.69,140-102.69V241.72H477V7H374.34C315.66,7,315.66,109.69,257,109.69V7H120.63C120.63,75.32,66.27,136.76,7.59,136.76Z" transform="translate(-7.59 -7)"/><path d="M550.7,168.37v-88C550.7,21.67,492,21.67,492,21.67V7H726.75C800.1,7,829.44,66.93,829.44,116.54c0,51.38-29.34,125.18-102.69,125.18H492V227.05S550.7,227.05,550.7,168.37Zm218.83-132c-47.67,0-174.82,127.14-174.82,174.82,0,0,0,15.89,15.9,15.89,47.68,0,174.82-143,174.82-174.82C785.43,52.23,785.43,36.34,769.53,36.34Z" transform="translate(-7.59 -7)"/><path d="M1306.23,7H1100.85V241.72h102.69v-43h102.69L1379.59,117V87.69ZM1203.54,117V87.69h73.35V117Z" transform="translate(-7.59 -7)"/><path d="M1085.08,7V241.72h-9.5c0-60.39-13.39-86.11-46.23-86.11-43.3,0-57.39,89.51-120.31,89.51-44,0-73.35-35.5-73.35-76.75,0-33.06,29.73-73.35,71.94-73.35,58.55,0,76.52,51.35,113.2,51.35,36.41,0,54.29-28.34,54.29-64,0-33-32.19-68.64-92.73-69.29-88-.93-129.36,79-129.36,79l-2.67,0V7ZM935.57,131.7a24.82,24.82,0,1,0,0,49.63c24.82,0,27.65-24.81,41.57-24.81C962.83,156.52,957.81,131.7,935.57,131.7Z" transform="translate(-7.59 -7)"/></svg>